<svg width="166" height="39" viewBox="0 0 166 39" fill="none" xmlns="http://www.w3.org/2000/svg">
<path d="M5.79655e-06 37.1799V34.7879L4.78401 33.6439V4.31593L5.79655e-06 3.17193V0.779929H26.832V11.4399H24.44L22.256 4.26393L11.18 3.84793V17.1599L22.412 16.2239V20.8519L11.18 19.9679V33.6439L17.004 34.7879V37.1799H5.79655e-06ZM24.5123 37.1799V34.7879L29.4003 33.6439L42.0363 0.519929H45.7803L57.6363 33.6959L62.4203 34.7879V37.1799H47.1323V34.7879L50.9803 33.9039L48.4843 26.8839H35.7443L33.0403 33.7479L37.6163 34.7879V37.1799H24.5123ZM36.8883 23.8159H47.3403L42.2443 9.61993L36.8883 23.8159ZM65.4778 9.09993C65.4778 6.2226 66.6218 3.9866 68.9098 2.39193C71.1978 0.797263 74.1618 -7.00951e-05 77.8018 -7.00951e-05C81.6844 -7.00951e-05 85.2378 0.398597 88.4618 1.19593L88.2018 11.1799H85.8618L83.2618 3.69193C81.8058 3.4146 80.3324 3.27593 78.8418 3.27593C76.4498 3.27593 74.5604 3.74393 73.1738 4.67993C71.8218 5.61593 71.1458 6.91593 71.1458 8.57993C71.1458 10.0013 71.7524 11.1973 72.9658 12.1679C74.2138 13.1039 76.3631 14.2133 79.4138 15.4959C81.0431 16.1546 82.3778 16.7786 83.4178 17.3679C84.4924 17.9226 85.6364 18.6679 86.8498 19.6039C88.0631 20.5399 88.9644 21.6666 89.5538 22.9839C90.1778 24.3013 90.4898 25.7746 90.4898 27.4039C90.4898 30.8706 89.2071 33.5399 86.6418 35.4119C84.2498 37.1453 81.2511 37.9946 77.6458 37.9599C76.6751 37.9599 75.0631 37.8733 72.8098 37.6999C70.5911 37.5266 68.1818 37.0586 65.5818 36.2959V26.0519H67.9738L70.6258 33.8519C72.0818 34.3026 73.7804 34.5279 75.7218 34.5279C78.4258 34.5279 80.6098 34.0599 82.2738 33.1239C83.9378 32.1533 84.7698 30.6453 84.7698 28.5999C84.7698 27.0399 84.0244 25.6879 82.5338 24.5439C81.0431 23.3999 78.8591 22.2039 75.9818 20.9559C72.0298 19.2573 69.2911 17.6106 67.7658 16.0159C66.2404 14.4213 65.4778 12.1159 65.4778 9.09993ZM114.403 -7.00951e-05C118.424 -7.00951e-05 121.804 0.606597 124.543 1.81993V11.6479H122.151L119.759 3.95193C118.407 3.63993 116.847 3.48393 115.079 3.48393C106.447 3.48393 102.131 8.64926 102.131 18.9799C102.131 29.3106 106.1 34.4759 114.039 34.4759C115.218 34.4759 116.275 34.4413 117.211 34.3719C118.147 34.3026 118.996 34.1986 119.759 34.0599L122.775 25.8439H125.167L124.803 35.6719C124.318 35.9493 123.624 36.2266 122.723 36.5039C121.822 36.7813 120.834 37.0239 119.759 37.2319C118.719 37.4399 117.627 37.6133 116.483 37.7519C115.374 37.8906 114.351 37.9599 113.415 37.9599C107.556 37.9599 103.119 36.3306 100.103 33.0719C97.0868 29.8133 95.5788 25.1159 95.5788 18.9799C95.5788 12.8439 97.1388 8.1466 100.259 4.88793C103.414 1.62926 108.128 -7.00951e-05 114.403 -7.00951e-05ZM147.886 -7.00951e-05C150.694 -7.00951e-05 153.172 0.46793 155.322 1.40393C157.471 2.33993 159.291 3.63993 160.782 5.30393C162.272 6.96793 163.399 8.96126 164.162 11.2839C164.924 13.6066 165.306 16.1546 165.306 18.9279C165.306 21.7359 164.924 24.3013 164.162 26.6239C163.434 28.9466 162.324 30.9573 160.834 32.6559C159.378 34.3199 157.558 35.6199 155.374 36.5559C153.224 37.4919 150.728 37.9599 147.886 37.9599C144.87 37.9599 142.252 37.4573 140.034 36.4519C137.85 35.4466 136.047 34.0946 134.626 32.3959C133.204 30.6626 132.147 28.6346 131.454 26.3119C130.795 23.9893 130.466 21.4933 130.466 18.8239C130.466 16.2239 130.812 13.7973 131.506 11.5439C132.199 9.25593 133.256 7.2626 134.678 5.56393C136.099 3.8306 137.902 2.4786 140.086 1.50793C142.304 0.502596 144.904 -7.00951e-05 147.886 -7.00951e-05ZM147.886 3.06793C144.35 3.06793 141.663 4.5586 139.826 7.53993C138.023 10.4866 137.122 14.2999 137.122 18.9799C137.122 23.9373 138.075 27.8373 139.982 30.6799C141.923 33.4879 144.558 34.8919 147.886 34.8919C151.214 34.8919 153.831 33.4879 155.738 30.6799C157.679 27.8373 158.65 23.9373 158.65 18.9799C158.65 14.2999 157.731 10.4866 155.894 7.53993C154.091 4.5586 151.422 3.06793 147.886 3.06793Z" fill="#484848"/>
</svg>
