<svg width="373" height="135" viewBox="0 0 373 135" fill="none" xmlns="http://www.w3.org/2000/svg">
<mask id="path-1-outside-1_105_416" maskUnits="userSpaceOnUse" x="-0.0723267" y="-0.352051" width="373" height="136" fill="black">
<rect fill="white" x="-0.0723267" y="-0.352051" width="373" height="136"/>
<path d="M47.002 133.957C38.2753 133.957 30.4213 132.461 23.44 129.469C16.4587 126.352 10.9733 121.989 6.98401 116.379C2.99467 110.769 1.00001 104.224 1.00001 96.7439H23.814C24.3127 102.354 26.4943 106.967 30.359 110.582C34.3483 114.197 39.896 116.005 47.002 116.005C54.3573 116.005 60.092 114.26 64.206 110.769C68.32 107.154 70.377 102.541 70.377 96.9309C70.377 92.5676 69.068 89.0146 66.45 86.2719C63.9567 83.5293 60.7777 81.4099 56.913 79.9139C53.173 78.4179 47.937 76.7973 41.205 75.0519C32.7277 72.8079 25.8087 70.5639 20.448 68.3199C15.212 65.9513 10.724 62.3359 6.98401 57.4739C3.24401 52.6119 1.37401 46.1293 1.37401 38.0259C1.37401 30.5459 3.24401 24.0009 6.98401 18.3909C10.724 12.7809 15.96 8.47995 22.692 5.48795C29.424 2.49594 37.2157 0.999939 46.067 0.999939C58.6583 0.999939 68.9433 4.17894 76.922 10.5369C85.0253 16.7703 89.5133 25.3723 90.386 36.3429H66.824C66.45 31.6056 64.206 27.5539 60.092 24.1879C55.978 20.8219 50.555 19.1389 43.823 19.1389C37.7143 19.1389 32.7277 20.6973 28.863 23.8139C24.9983 26.9306 23.066 31.4186 23.066 37.2779C23.066 41.2673 24.2503 44.5709 26.619 47.1889C29.1123 49.6823 32.229 51.6769 35.969 53.1729C39.709 54.6689 44.8203 56.2896 51.303 58.0349C59.905 60.4036 66.8863 62.7723 72.247 65.1409C77.7323 67.5096 82.345 71.1873 86.085 76.1739C89.9497 81.0359 91.882 87.5809 91.882 95.8089C91.882 102.416 90.0743 108.65 86.459 114.509C82.9683 120.368 77.7947 125.106 70.938 128.721C64.206 132.212 56.2273 133.957 47.002 133.957ZM185.104 106.094H130.687L121.337 132.648H99.0844L145.647 2.49594H170.331L216.894 132.648H194.454L185.104 106.094ZM179.12 88.7029L157.989 28.3019L136.671 88.7029H179.12ZM248.173 115.444H292.118V132.648H226.855V2.68294H248.173V115.444ZM320.979 19.8869V58.0349H365.859V75.4259H320.979V115.257H371.469V132.648H299.661V2.49594H371.469V19.8869H320.979Z"/>
</mask>
<path d="M23.44 129.469L23.0324 130.382L23.0392 130.385L23.0461 130.388L23.44 129.469ZM6.98401 116.379L7.79896 115.799V115.799L6.98401 116.379ZM1.00001 96.7439V95.7439H7.62939e-06V96.7439H1.00001ZM23.814 96.7439L24.8101 96.6554L24.7291 95.7439H23.814V96.7439ZM30.359 110.582L29.6758 111.312L29.6816 111.318L29.6875 111.323L30.359 110.582ZM64.206 110.769L64.853 111.531L64.8596 111.526L64.8661 111.52L64.206 110.769ZM66.45 86.2719L65.7101 86.9446L65.7183 86.9536L65.7267 86.9624L66.45 86.2719ZM56.913 79.9139L56.5416 80.8425L56.552 80.8465L56.913 79.9139ZM41.205 75.0519L40.9491 76.0187L40.954 76.0199L41.205 75.0519ZM20.448 68.3199L20.0358 69.2311L20.0488 69.2369L20.0619 69.2424L20.448 68.3199ZM6.98401 18.3909L7.81606 18.9456V18.9456L6.98401 18.3909ZM22.692 5.48795L23.0981 6.40176V6.40176L22.692 5.48795ZM76.922 10.5369L76.2988 11.319L76.3055 11.3243L76.3123 11.3296L76.922 10.5369ZM90.386 36.3429V37.3429H91.4687L91.3829 36.2636L90.386 36.3429ZM66.824 36.3429L65.8271 36.4216L65.8998 37.3429H66.824V36.3429ZM28.863 23.8139L29.4908 24.5924H29.4908L28.863 23.8139ZM26.619 47.1889L25.8775 47.8599L25.8942 47.8784L25.9119 47.896L26.619 47.1889ZM35.969 53.173L36.3404 52.2445L35.969 53.173ZM51.303 58.0349L51.5685 57.0708L51.563 57.0693L51.303 58.0349ZM72.247 65.1409L71.8428 66.0557L71.8506 66.059L72.247 65.1409ZM86.085 76.174L85.285 76.7739L85.2934 76.7852L85.3022 76.7962L86.085 76.174ZM86.459 114.509L85.608 113.984L85.6039 113.99L85.5999 113.997L86.459 114.509ZM70.938 128.721L71.3983 129.609L71.4044 129.606L70.938 128.721ZM47.002 133.957V132.957C38.3907 132.957 30.6736 131.481 23.8339 128.55L23.44 129.469L23.0461 130.388C30.1691 133.441 38.1599 134.957 47.002 134.957V133.957ZM23.44 129.469L23.8477 128.556C17.0109 125.504 11.6736 121.248 7.79896 115.799L6.98401 116.379L6.16905 116.958C10.2731 122.73 15.9064 127.201 23.0324 130.382L23.44 129.469ZM6.98401 116.379L7.79896 115.799C3.94053 110.374 2.00001 104.035 2.00001 96.7439H1.00001H7.62939e-06C7.62939e-06 104.413 2.04882 111.164 6.16905 116.958L6.98401 116.379ZM1.00001 96.7439V97.7439H23.814V96.7439V95.7439H1.00001V96.7439ZM23.814 96.7439L22.8179 96.8325C23.3369 102.67 25.6193 107.517 29.6758 111.312L30.359 110.582L31.0422 109.852C27.3694 106.416 25.2885 102.037 24.8101 96.6554L23.814 96.7439ZM30.359 110.582L29.6875 111.323C33.9131 115.152 39.7289 117.005 47.002 117.005V116.005V115.005C40.0631 115.005 34.7836 113.242 31.0305 109.841L30.359 110.582ZM47.002 116.005V117.005C54.5082 117.005 60.502 115.223 64.853 111.531L64.206 110.769L63.559 110.006C59.6821 113.296 54.2065 115.005 47.002 115.005V116.005ZM64.206 110.769L64.8661 111.52C69.2021 107.71 71.377 102.821 71.377 96.9309H70.377H69.377C69.377 102.261 67.4379 106.598 63.5459 110.018L64.206 110.769ZM70.377 96.9309H71.377C71.377 92.3522 69.9958 88.5383 67.1734 85.5815L66.45 86.2719L65.7267 86.9624C68.1402 89.4909 69.377 92.783 69.377 96.9309H70.377ZM66.45 86.2719L67.1899 85.5993C64.5804 82.7288 61.2662 80.5267 57.274 78.9814L56.913 79.9139L56.552 80.8465C60.2892 82.2932 63.3329 84.3298 65.7101 86.9446L66.45 86.2719ZM56.913 79.9139L57.2844 78.9855C53.4869 77.4665 48.2041 75.8335 41.456 74.0839L41.205 75.0519L40.954 76.0199C47.6699 77.7611 52.8591 79.3694 56.5416 80.8424L56.913 79.9139ZM41.205 75.0519L41.4609 74.0852C33.008 71.8477 26.137 69.6173 20.8341 67.3975L20.448 68.3199L20.0619 69.2424C25.4804 71.5106 32.4473 73.7682 40.9491 76.0186L41.205 75.0519ZM20.448 68.3199L20.8602 67.4088C15.7839 65.1124 11.4234 61.6051 7.77663 56.8642L6.98401 57.4739L6.19138 58.0837C10.0246 63.0668 14.6402 66.7901 20.0358 69.2311L20.448 68.3199ZM6.98401 57.4739L7.77663 56.8642C4.20866 52.2259 2.37401 45.9795 2.37401 38.0259H1.37401H0.374007C0.374007 46.2791 2.27935 52.998 6.19138 58.0837L6.98401 57.4739ZM1.37401 38.0259H2.37401C2.37401 30.7209 4.19739 24.3736 7.81606 18.9456L6.98401 18.3909L6.15196 17.8363C2.29063 23.6282 0.374007 30.371 0.374007 38.0259H1.37401ZM6.98401 18.3909L7.81606 18.9456C11.4413 13.5078 16.5226 9.32421 23.0981 6.40176L22.692 5.48795L22.2859 4.57414C15.3974 7.63568 10.0067 12.0541 6.15196 17.8363L6.98401 18.3909ZM22.692 5.48795L23.0981 6.40176C29.6792 3.47684 37.3279 1.99994 46.067 1.99994V0.999939V-6.10352e-05C37.1034 -6.10352e-05 29.1688 1.51505 22.2859 4.57414L22.692 5.48795ZM46.067 0.999939V1.99994C58.4864 1.99994 68.5356 5.13266 76.2988 11.319L76.922 10.5369L77.5452 9.75488C69.3511 3.22522 58.8303 -6.10352e-05 46.067 -6.10352e-05V0.999939ZM76.922 10.5369L76.3123 11.3296C84.173 17.3763 88.537 25.7092 89.3892 36.4222L90.386 36.3429L91.3829 36.2636C90.4897 25.0354 85.8777 16.1643 77.5317 9.74432L76.922 10.5369ZM90.386 36.3429V35.3429H66.824V36.3429V37.3429H90.386V36.3429ZM66.824 36.3429L67.8209 36.2642C67.4228 31.2218 65.0226 26.93 60.7253 23.414L60.092 24.1879L59.4588 24.9619C63.3894 28.1779 65.4772 31.9894 65.8271 36.4216L66.824 36.3429ZM60.092 24.1879L60.7253 23.414C56.3893 19.8664 50.723 18.1389 43.823 18.1389V19.1389V20.1389C50.387 20.1389 55.5667 21.7775 59.4588 24.9619L60.092 24.1879ZM43.823 19.1389V18.1389C37.5401 18.1389 32.3158 19.7448 28.2353 23.0355L28.863 23.8139L29.4908 24.5924C33.1396 21.6497 37.8886 20.1389 43.823 20.1389V19.1389ZM28.863 23.8139L28.2353 23.0355C24.0916 26.3772 22.066 31.177 22.066 37.2779H23.066H24.066C24.066 31.6602 25.905 27.4841 29.4908 24.5924L28.863 23.8139ZM23.066 37.2779H22.066C22.066 41.4806 23.3206 45.0339 25.8775 47.8599L26.619 47.1889L27.3605 46.518C25.1801 44.108 24.066 41.0539 24.066 37.2779H23.066ZM26.619 47.1889L25.9119 47.896C28.5137 50.4978 31.7497 52.5622 35.5976 54.1014L35.969 53.173L36.3404 52.2445C32.7083 50.7916 29.711 48.8667 27.3261 46.4818L26.619 47.1889ZM35.969 53.173L35.5976 54.1014C39.39 55.6184 44.5439 57.2508 51.043 59.0006L51.303 58.0349L51.563 57.0693C45.0968 55.3284 40.0281 53.7195 36.3404 52.2445L35.969 53.173ZM51.303 58.0349L51.0375 58.9991C59.6139 61.3607 66.5439 63.7142 71.8428 66.0556L72.247 65.1409L72.6512 64.2263C67.2288 61.8303 60.1961 59.4466 51.5685 57.0708L51.303 58.0349ZM72.247 65.1409L71.8506 66.059C77.1689 68.3556 81.6448 71.9204 85.285 76.7739L86.085 76.174L86.885 75.5739C83.0452 70.4542 78.2958 66.6637 72.6434 64.2229L72.247 65.1409ZM86.085 76.174L85.3022 76.7962C88.9864 81.4312 90.882 87.7334 90.882 95.8089H91.882H92.882C92.882 87.4285 90.9129 80.6407 86.8678 75.5517L86.085 76.174ZM91.882 95.8089H90.882C90.882 102.223 89.1302 108.275 85.608 113.984L86.459 114.509L87.3101 115.034C91.0185 109.024 92.882 102.61 92.882 95.8089H91.882ZM86.459 114.509L85.5999 113.997C82.2157 119.678 77.1883 124.295 70.4716 127.836L70.938 128.721L71.4044 129.606C78.4011 125.916 83.721 121.059 87.3181 115.021L86.459 114.509ZM70.938 128.721L70.4777 127.833C63.9155 131.236 56.1014 132.957 47.002 132.957V133.957V134.957C56.3533 134.957 64.4965 133.187 71.3983 129.609L70.938 128.721ZM185.104 106.094L186.048 105.762L185.812 105.094H185.104V106.094ZM130.687 106.094V105.094H129.979L129.744 105.762L130.687 106.094ZM121.337 132.648V133.648H122.046L122.281 132.98L121.337 132.648ZM99.0844 132.648L98.1429 132.311L97.6646 133.648H99.0844V132.648ZM145.647 2.49594V1.49594H144.943L144.706 2.15909L145.647 2.49594ZM170.331 2.49594L171.273 2.15909L171.036 1.49594H170.331V2.49594ZM216.894 132.648V133.648H218.314L217.836 132.311L216.894 132.648ZM194.454 132.648L193.511 132.98L193.746 133.648H194.454V132.648ZM179.12 88.7029V89.7029H180.53L180.064 88.3727L179.12 88.7029ZM157.989 28.3019L158.933 27.9717L157.994 25.2855L157.046 27.9691L157.989 28.3019ZM136.671 88.7029L135.728 88.3701L135.258 89.7029H136.671V88.7029ZM185.104 106.094V105.094H130.687V106.094V107.094H185.104V106.094ZM130.687 106.094L129.744 105.762L120.394 132.316L121.337 132.648L122.281 132.98L131.631 106.426L130.687 106.094ZM121.337 132.648V131.648H99.0844V132.648V133.648H121.337V132.648ZM99.0844 132.648L100.026 132.985L146.589 2.83279L145.647 2.49594L144.706 2.15909L98.1429 132.311L99.0844 132.648ZM145.647 2.49594V3.49594H170.331V2.49594V1.49594H145.647V2.49594ZM170.331 2.49594L169.39 2.83279L215.953 132.985L216.894 132.648L217.836 132.311L171.273 2.15909L170.331 2.49594ZM216.894 132.648V131.648H194.454V132.648V133.648H216.894V132.648ZM194.454 132.648L195.398 132.316L186.048 105.762L185.104 106.094L184.161 106.426L193.511 132.98L194.454 132.648ZM179.12 88.7029L180.064 88.3727L158.933 27.9717L157.989 28.3019L157.046 28.6322L178.177 89.0332L179.12 88.7029ZM157.989 28.3019L157.046 27.9691L135.728 88.3701L136.671 88.7029L137.614 89.0358L158.932 28.6348L157.989 28.3019ZM136.671 88.7029V89.7029H179.12V88.7029V87.7029H136.671V88.7029ZM248.173 115.444H247.173V116.444H248.173V115.444ZM292.118 115.444H293.118V114.444H292.118V115.444ZM292.118 132.648V133.648H293.118V132.648H292.118ZM226.855 132.648H225.855V133.648H226.855V132.648ZM226.855 2.68294V1.68294H225.855V2.68294H226.855ZM248.173 2.68294H249.173V1.68294H248.173V2.68294ZM248.173 115.444V116.444H292.118V115.444V114.444H248.173V115.444ZM292.118 115.444H291.118V132.648H292.118H293.118V115.444H292.118ZM292.118 132.648V131.648H226.855V132.648V133.648H292.118V132.648ZM226.855 132.648H227.855V2.68294H226.855H225.855V132.648H226.855ZM226.855 2.68294V3.68294H248.173V2.68294V1.68294H226.855V2.68294ZM248.173 2.68294H247.173V115.444H248.173H249.173V2.68294H248.173ZM320.979 19.8869V18.8869H319.979V19.8869H320.979ZM320.979 58.0349H319.979V59.0349H320.979V58.0349ZM365.859 58.0349H366.859V57.0349H365.859V58.0349ZM365.859 75.4259V76.4259H366.859V75.4259H365.859ZM320.979 75.4259V74.4259H319.979V75.4259H320.979ZM320.979 115.257H319.979V116.257H320.979V115.257ZM371.469 115.257H372.469V114.257H371.469V115.257ZM371.469 132.648V133.648H372.469V132.648H371.469ZM299.661 132.648H298.661V133.648H299.661V132.648ZM299.661 2.49594V1.49594H298.661V2.49594H299.661ZM371.469 2.49594H372.469V1.49594H371.469V2.49594ZM371.469 19.8869V20.8869H372.469V19.8869H371.469ZM320.979 19.8869H319.979V58.0349H320.979H321.979V19.8869H320.979ZM320.979 58.0349V59.0349H365.859V58.0349V57.0349H320.979V58.0349ZM365.859 58.0349H364.859V75.4259H365.859H366.859V58.0349H365.859ZM365.859 75.4259V74.4259H320.979V75.4259V76.4259H365.859V75.4259ZM320.979 75.4259H319.979V115.257H320.979H321.979V75.4259H320.979ZM320.979 115.257V116.257H371.469V115.257V114.257H320.979V115.257ZM371.469 115.257H370.469V132.648H371.469H372.469V115.257H371.469ZM371.469 132.648V131.648H299.661V132.648V133.648H371.469V132.648ZM299.661 132.648H300.661V2.49594H299.661H298.661V132.648H299.661ZM299.661 2.49594V3.49594H371.469V2.49594V1.49594H299.661V2.49594ZM371.469 2.49594H370.469V19.8869H371.469H372.469V2.49594H371.469ZM371.469 19.8869V18.8869H320.979V19.8869V20.8869H371.469V19.8869Z" fill="#484848" mask="url(#path-1-outside-1_105_416)"/>
</svg>
