<svg width="203" height="61" viewBox="0 0 203 61" fill="none" xmlns="http://www.w3.org/2000/svg">
<g filter="url(#filter0_d_105_135)">
<path d="M72.68 8.1V9.96H66.78V14.06H71.38V15.92H66.78V22H64.5V8.1H72.68ZM77.073 12.58C77.4063 12.02 77.8463 11.5867 78.393 11.28C78.953 10.96 79.613 10.8 80.373 10.8V13.16H79.793C78.8996 13.16 78.2196 13.3867 77.753 13.84C77.2996 14.2933 77.073 15.08 77.073 16.2V22H74.793V10.98H77.073V12.58ZM92.5688 16.22C92.5688 16.6333 92.5421 17.0067 92.4888 17.34H84.0688C84.1354 18.22 84.4621 18.9267 85.0488 19.46C85.6354 19.9933 86.3554 20.26 87.2088 20.26C88.4354 20.26 89.3021 19.7467 89.8088 18.72H92.2687C91.9354 19.7333 91.3288 20.5667 90.4488 21.22C89.5821 21.86 88.5021 22.18 87.2088 22.18C86.1554 22.18 85.2088 21.9467 84.3688 21.48C83.5421 21 82.8888 20.3333 82.4088 19.48C81.9421 18.6133 81.7088 17.6133 81.7088 16.48C81.7088 15.3467 81.9354 14.3533 82.3888 13.5C82.8554 12.6333 83.5021 11.9667 84.3288 11.5C85.1688 11.0333 86.1288 10.8 87.2088 10.8C88.2488 10.8 89.1754 11.0267 89.9888 11.48C90.8021 11.9333 91.4354 12.5733 91.8888 13.4C92.3421 14.2133 92.5688 15.1533 92.5688 16.22ZM90.1888 15.5C90.1754 14.66 89.8754 13.9867 89.2888 13.48C88.7021 12.9733 87.9754 12.72 87.1088 12.72C86.3221 12.72 85.6488 12.9733 85.0888 13.48C84.5288 13.9733 84.1954 14.6467 84.0888 15.5H90.1888ZM104.913 16.22C104.913 16.6333 104.886 17.0067 104.833 17.34H96.4125C96.4792 18.22 96.8058 18.9267 97.3925 19.46C97.9792 19.9933 98.6992 20.26 99.5525 20.26C100.779 20.26 101.646 19.7467 102.153 18.72H104.612C104.279 19.7333 103.673 20.5667 102.793 21.22C101.926 21.86 100.846 22.18 99.5525 22.18C98.4992 22.18 97.5525 21.9467 96.7125 21.48C95.8858 21 95.2325 20.3333 94.7525 19.48C94.2858 18.6133 94.0525 17.6133 94.0525 16.48C94.0525 15.3467 94.2792 14.3533 94.7325 13.5C95.1992 12.6333 95.8458 11.9667 96.6725 11.5C97.5125 11.0333 98.4725 10.8 99.5525 10.8C100.593 10.8 101.519 11.0267 102.333 11.48C103.146 11.9333 103.779 12.5733 104.233 13.4C104.686 14.2133 104.913 15.1533 104.913 16.22ZM102.533 15.5C102.519 14.66 102.219 13.9867 101.633 13.48C101.046 12.9733 100.319 12.72 99.4525 12.72C98.6658 12.72 97.9925 12.9733 97.4325 13.48C96.8725 13.9733 96.5392 14.6467 96.4325 15.5H102.533ZM116.932 22.14C115.998 22.14 115.158 21.98 114.412 21.66C113.665 21.3267 113.078 20.86 112.652 20.26C112.225 19.66 112.012 18.96 112.012 18.16H114.452C114.505 18.76 114.738 19.2533 115.152 19.64C115.578 20.0267 116.172 20.22 116.932 20.22C117.718 20.22 118.332 20.0333 118.772 19.66C119.212 19.2733 119.432 18.78 119.432 18.18C119.432 17.7133 119.292 17.3333 119.012 17.04C118.745 16.7467 118.405 16.52 117.992 16.36C117.592 16.2 117.032 16.0267 116.312 15.84C115.405 15.6 114.665 15.36 114.092 15.12C113.532 14.8667 113.052 14.48 112.652 13.96C112.252 13.44 112.052 12.7467 112.052 11.88C112.052 11.08 112.252 10.38 112.652 9.78C113.052 9.18 113.612 8.72 114.332 8.4C115.052 8.08 115.885 7.92 116.832 7.92C118.178 7.92 119.278 8.26 120.132 8.94C120.998 9.60667 121.478 10.5267 121.572 11.7H119.052C119.012 11.1933 118.772 10.76 118.332 10.4C117.892 10.04 117.312 9.86 116.592 9.86C115.938 9.86 115.405 10.0267 114.992 10.36C114.578 10.6933 114.372 11.1733 114.372 11.8C114.372 12.2267 114.498 12.58 114.752 12.86C115.018 13.1267 115.352 13.34 115.752 13.5C116.152 13.66 116.698 13.8333 117.392 14.02C118.312 14.2733 119.058 14.5267 119.632 14.78C120.218 15.0333 120.712 15.4267 121.112 15.96C121.525 16.48 121.732 17.18 121.732 18.06C121.732 18.7667 121.538 19.4333 121.152 20.06C120.778 20.6867 120.225 21.1933 119.492 21.58C118.772 21.9533 117.918 22.14 116.932 22.14ZM130.122 10.8C130.962 10.8 131.709 10.98 132.362 11.34C133.029 11.7 133.549 12.2333 133.922 12.94C134.309 13.6467 134.502 14.5 134.502 15.5V22H132.242V15.84C132.242 14.8533 131.995 14.1 131.502 13.58C131.009 13.0467 130.335 12.78 129.482 12.78C128.629 12.78 127.949 13.0467 127.442 13.58C126.949 14.1 126.702 14.8533 126.702 15.84V22H124.422V7.2H126.702V12.26C127.089 11.7933 127.575 11.4333 128.162 11.18C128.762 10.9267 129.415 10.8 130.122 10.8ZM138.57 9.52C138.157 9.52 137.81 9.38 137.53 9.1C137.25 8.82 137.11 8.47333 137.11 8.06C137.11 7.64667 137.25 7.3 137.53 7.02C137.81 6.74 138.157 6.6 138.57 6.6C138.97 6.6 139.31 6.74 139.59 7.02C139.87 7.3 140.01 7.64667 140.01 8.06C140.01 8.47333 139.87 8.82 139.59 9.1C139.31 9.38 138.97 9.52 138.57 9.52ZM139.69 10.98V22H137.41V10.98H139.69ZM144.964 12.6C145.35 12.0933 145.877 11.6667 146.544 11.32C147.21 10.9733 147.964 10.8 148.804 10.8C149.764 10.8 150.637 11.04 151.424 11.52C152.224 11.9867 152.85 12.6467 153.304 13.5C153.757 14.3533 153.984 15.3333 153.984 16.44C153.984 17.5467 153.757 18.54 153.304 19.42C152.85 20.2867 152.224 20.9667 151.424 21.46C150.637 21.94 149.764 22.18 148.804 22.18C147.964 22.18 147.217 22.0133 146.564 21.68C145.91 21.3333 145.377 20.9067 144.964 20.4V27.24H142.684V10.98H144.964V12.6ZM151.664 16.44C151.664 15.68 151.504 15.0267 151.184 14.48C150.877 13.92 150.464 13.5 149.944 13.22C149.437 12.9267 148.89 12.78 148.304 12.78C147.73 12.78 147.184 12.9267 146.664 13.22C146.157 13.5133 145.744 13.94 145.424 14.5C145.117 15.06 144.964 15.72 144.964 16.48C144.964 17.24 145.117 17.9067 145.424 18.48C145.744 19.04 146.157 19.4667 146.664 19.76C147.184 20.0533 147.73 20.2 148.304 20.2C148.89 20.2 149.437 20.0533 149.944 19.76C150.464 19.4533 150.877 19.0133 151.184 18.44C151.504 17.8667 151.664 17.2 151.664 16.44ZM158.518 12.6C158.905 12.0933 159.432 11.6667 160.098 11.32C160.765 10.9733 161.518 10.8 162.358 10.8C163.318 10.8 164.192 11.04 164.978 11.52C165.778 11.9867 166.405 12.6467 166.858 13.5C167.312 14.3533 167.538 15.3333 167.538 16.44C167.538 17.5467 167.312 18.54 166.858 19.42C166.405 20.2867 165.778 20.9667 164.978 21.46C164.192 21.94 163.318 22.18 162.358 22.18C161.518 22.18 160.772 22.0133 160.118 21.68C159.465 21.3333 158.932 20.9067 158.518 20.4V27.24H156.238V10.98H158.518V12.6ZM165.218 16.44C165.218 15.68 165.058 15.0267 164.738 14.48C164.432 13.92 164.018 13.5 163.498 13.22C162.992 12.9267 162.445 12.78 161.858 12.78C161.285 12.78 160.738 12.9267 160.218 13.22C159.712 13.5133 159.298 13.94 158.978 14.5C158.672 15.06 158.518 15.72 158.518 16.48C158.518 17.24 158.672 17.9067 158.978 18.48C159.298 19.04 159.712 19.4667 160.218 19.76C160.738 20.0533 161.285 20.2 161.858 20.2C162.445 20.2 162.992 20.0533 163.498 19.76C164.018 19.4533 164.432 19.0133 164.738 18.44C165.058 17.8667 165.218 17.2 165.218 16.44ZM170.953 9.52C170.54 9.52 170.193 9.38 169.913 9.1C169.633 8.82 169.493 8.47333 169.493 8.06C169.493 7.64667 169.633 7.3 169.913 7.02C170.193 6.74 170.54 6.6 170.953 6.6C171.353 6.6 171.693 6.74 171.973 7.02C172.253 7.3 172.393 7.64667 172.393 8.06C172.393 8.47333 172.253 8.82 171.973 9.1C171.693 9.38 171.353 9.52 170.953 9.52ZM172.073 10.98V22H169.793V10.98H172.073ZM180.626 10.8C181.493 10.8 182.266 10.98 182.946 11.34C183.64 11.7 184.18 12.2333 184.566 12.94C184.953 13.6467 185.146 14.5 185.146 15.5V22H182.886V15.84C182.886 14.8533 182.64 14.1 182.146 13.58C181.653 13.0467 180.98 12.78 180.126 12.78C179.273 12.78 178.593 13.0467 178.086 13.58C177.593 14.1 177.346 14.8533 177.346 15.84V22H175.066V10.98H177.346V12.24C177.72 11.7867 178.193 11.4333 178.766 11.18C179.353 10.9267 179.973 10.8 180.626 10.8ZM192.495 10.8C193.348 10.8 194.101 10.9733 194.755 11.32C195.421 11.6533 195.941 12.0733 196.315 12.58V10.98H198.615V22.18C198.615 23.1933 198.401 24.0933 197.975 24.88C197.548 25.68 196.928 26.3067 196.115 26.76C195.315 27.2133 194.355 27.44 193.235 27.44C191.741 27.44 190.501 27.0867 189.515 26.38C188.528 25.6867 187.968 24.74 187.835 23.54H190.095C190.268 24.1133 190.635 24.5733 191.195 24.92C191.768 25.28 192.448 25.46 193.235 25.46C194.155 25.46 194.895 25.18 195.455 24.62C196.028 24.06 196.315 23.2467 196.315 22.18V20.34C195.928 20.86 195.401 21.3 194.735 21.66C194.081 22.0067 193.335 22.18 192.495 22.18C191.535 22.18 190.655 21.94 189.855 21.46C189.068 20.9667 188.441 20.2867 187.975 19.42C187.521 18.54 187.295 17.5467 187.295 16.44C187.295 15.3333 187.521 14.3533 187.975 13.5C188.441 12.6467 189.068 11.9867 189.855 11.52C190.655 11.04 191.535 10.8 192.495 10.8ZM196.315 16.48C196.315 15.72 196.155 15.06 195.835 14.5C195.528 13.94 195.121 13.5133 194.615 13.22C194.108 12.9267 193.561 12.78 192.975 12.78C192.388 12.78 191.841 12.9267 191.335 13.22C190.828 13.5 190.415 13.92 190.095 14.48C189.788 15.0267 189.635 15.68 189.635 16.44C189.635 17.2 189.788 17.8667 190.095 18.44C190.415 19.0133 190.828 19.4533 191.335 19.76C191.855 20.0533 192.401 20.2 192.975 20.2C193.561 20.2 194.108 20.0533 194.615 19.76C195.121 19.4667 195.528 19.04 195.835 18.48C196.155 17.9067 196.315 17.24 196.315 16.48Z" fill="#484848"/>
<path d="M69.288 49.112C68.2533 49.112 67.3093 48.872 66.456 48.392C65.6027 47.9013 64.9253 47.224 64.424 46.36C63.9333 45.4853 63.688 44.504 63.688 43.416C63.688 42.328 63.9333 41.352 64.424 40.488C64.9253 39.6133 65.6027 38.936 66.456 38.456C67.3093 37.9653 68.2533 37.72 69.288 37.72C70.3333 37.72 71.2827 37.9653 72.136 38.456C72.9893 38.936 73.6613 39.608 74.152 40.472C74.6427 41.336 74.888 42.3173 74.888 43.416C74.888 44.5147 74.6427 45.496 74.152 46.36C73.6613 47.224 72.9893 47.9013 72.136 48.392C71.2827 48.872 70.3333 49.112 69.288 49.112ZM69.288 47.848C70.0667 47.848 70.7653 47.6667 71.384 47.304C72.0133 46.9413 72.504 46.424 72.856 45.752C73.2187 45.08 73.4 44.3013 73.4 43.416C73.4 42.52 73.2187 41.7413 72.856 41.08C72.504 40.408 72.0187 39.8907 71.4 39.528C70.7813 39.1653 70.0773 38.984 69.288 38.984C68.4987 38.984 67.7947 39.1653 67.176 39.528C66.5573 39.8907 66.0667 40.408 65.704 41.08C65.352 41.7413 65.176 42.52 65.176 43.416C65.176 44.3013 65.352 45.08 65.704 45.752C66.0667 46.424 66.5573 46.9413 67.176 47.304C67.8053 47.6667 68.5093 47.848 69.288 47.848ZM78.2661 41.656C78.5221 41.1547 78.8848 40.7653 79.3541 40.488C79.8341 40.2107 80.4155 40.072 81.0981 40.072V41.576H80.7141C79.0821 41.576 78.2661 42.4613 78.2661 44.232V49H76.8101V40.232H78.2661V41.656ZM82.2349 44.584C82.2349 43.688 82.4162 42.904 82.7789 42.232C83.1415 41.5493 83.6375 41.0213 84.2669 40.648C84.9069 40.2747 85.6215 40.088 86.4109 40.088C87.0935 40.088 87.7282 40.248 88.3149 40.568C88.9015 40.8773 89.3495 41.288 89.6589 41.8V37.16H91.1309V49H89.6589V47.352C89.3709 47.8747 88.9442 48.3067 88.3789 48.648C87.8135 48.9787 87.1522 49.144 86.3949 49.144C85.6162 49.144 84.9069 48.952 84.2669 48.568C83.6375 48.184 83.1415 47.6453 82.7789 46.952C82.4162 46.2587 82.2349 45.4693 82.2349 44.584ZM89.6589 44.6C89.6589 43.9387 89.5255 43.3627 89.2589 42.872C88.9922 42.3813 88.6295 42.008 88.1709 41.752C87.7229 41.4853 87.2269 41.352 86.6829 41.352C86.1389 41.352 85.6429 41.48 85.1949 41.736C84.7469 41.992 84.3895 42.3653 84.1229 42.856C83.8562 43.3467 83.7229 43.9227 83.7229 44.584C83.7229 45.256 83.8562 45.8427 84.1229 46.344C84.3895 46.8347 84.7469 47.2133 85.1949 47.48C85.6429 47.736 86.1389 47.864 86.6829 47.864C87.2269 47.864 87.7229 47.736 88.1709 47.48C88.6295 47.2133 88.9922 46.8347 89.2589 46.344C89.5255 45.8427 89.6589 45.2613 89.6589 44.6ZM101.591 44.28C101.591 44.5573 101.575 44.8507 101.543 45.16H94.5354C94.5887 46.024 94.882 46.7013 95.4154 47.192C95.9594 47.672 96.6154 47.912 97.3834 47.912C98.0127 47.912 98.5354 47.768 98.9514 47.48C99.378 47.1813 99.6767 46.7867 99.8474 46.296H101.415C101.181 47.1387 100.711 47.8267 100.007 48.36C99.3034 48.8827 98.4287 49.144 97.3834 49.144C96.5514 49.144 95.8047 48.9573 95.1434 48.584C94.4927 48.2107 93.9807 47.6827 93.6074 47C93.234 46.3067 93.0474 45.5067 93.0474 44.6C93.0474 43.6933 93.2287 42.8987 93.5914 42.216C93.954 41.5333 94.4607 41.0107 95.1114 40.648C95.7727 40.2747 96.53 40.088 97.3834 40.088C98.2154 40.088 98.9514 40.2693 99.5914 40.632C100.231 40.9947 100.722 41.496 101.063 42.136C101.415 42.7653 101.591 43.48 101.591 44.28ZM100.087 43.976C100.087 43.4213 99.9647 42.9467 99.7194 42.552C99.474 42.1467 99.138 41.8427 98.7114 41.64C98.2954 41.4267 97.8314 41.32 97.3194 41.32C96.5834 41.32 95.954 41.5547 95.4314 42.024C94.9194 42.4933 94.626 43.144 94.5514 43.976H100.087ZM104.969 41.656C105.225 41.1547 105.588 40.7653 106.057 40.488C106.537 40.2107 107.119 40.072 107.801 40.072V41.576H107.417C105.785 41.576 104.969 42.4613 104.969 44.232V49H103.513V40.232H104.969V41.656ZM117.572 49.144C116.75 49.144 116.004 48.9573 115.332 48.584C114.67 48.2107 114.148 47.6827 113.764 47C113.39 46.3067 113.204 45.5067 113.204 44.6C113.204 43.704 113.396 42.9147 113.78 42.232C114.174 41.5387 114.708 41.0107 115.38 40.648C116.052 40.2747 116.804 40.088 117.636 40.088C118.468 40.088 119.22 40.2747 119.892 40.648C120.564 41.0107 121.092 41.5333 121.476 42.216C121.87 42.8987 122.068 43.6933 122.068 44.6C122.068 45.5067 121.865 46.3067 121.46 47C121.065 47.6827 120.526 48.2107 119.844 48.584C119.161 48.9573 118.404 49.144 117.572 49.144ZM117.572 47.864C118.094 47.864 118.585 47.7413 119.044 47.496C119.502 47.2507 119.87 46.8827 120.148 46.392C120.436 45.9013 120.58 45.304 120.58 44.6C120.58 43.896 120.441 43.2987 120.164 42.808C119.886 42.3173 119.524 41.9547 119.076 41.72C118.628 41.4747 118.142 41.352 117.62 41.352C117.086 41.352 116.596 41.4747 116.148 41.72C115.71 41.9547 115.358 42.3173 115.092 42.808C114.825 43.2987 114.692 43.896 114.692 44.6C114.692 45.3147 114.82 45.9173 115.076 46.408C115.342 46.8987 115.694 47.2667 116.132 47.512C116.569 47.7467 117.049 47.864 117.572 47.864ZM127.246 47.656L129.966 40.232H131.518L128.078 49H126.382L122.942 40.232H124.51L127.246 47.656ZM140.951 44.28C140.951 44.5573 140.935 44.8507 140.903 45.16H133.895C133.948 46.024 134.241 46.7013 134.775 47.192C135.319 47.672 135.975 47.912 136.743 47.912C137.372 47.912 137.895 47.768 138.311 47.48C138.737 47.1813 139.036 46.7867 139.207 46.296H140.775C140.54 47.1387 140.071 47.8267 139.367 48.36C138.663 48.8827 137.788 49.144 136.743 49.144C135.911 49.144 135.164 48.9573 134.503 48.584C133.852 48.2107 133.34 47.6827 132.967 47C132.593 46.3067 132.407 45.5067 132.407 44.6C132.407 43.6933 132.588 42.8987 132.951 42.216C133.313 41.5333 133.82 41.0107 134.471 40.648C135.132 40.2747 135.889 40.088 136.743 40.088C137.575 40.088 138.311 40.2693 138.951 40.632C139.591 40.9947 140.081 41.496 140.423 42.136C140.775 42.7653 140.951 43.48 140.951 44.28ZM139.447 43.976C139.447 43.4213 139.324 42.9467 139.079 42.552C138.833 42.1467 138.497 41.8427 138.071 41.64C137.655 41.4267 137.191 41.32 136.679 41.32C135.943 41.32 135.313 41.5547 134.791 42.024C134.279 42.4933 133.985 43.144 133.911 43.976H139.447ZM144.329 41.656C144.585 41.1547 144.947 40.7653 145.417 40.488C145.897 40.2107 146.478 40.072 147.161 40.072V41.576H146.777C145.145 41.576 144.329 42.4613 144.329 44.232V49H142.873V40.232H144.329V41.656ZM152.483 38.76V37.432H155.491V49H154.019V38.76H152.483ZM165.368 38.696H159.752V42.344C159.997 42.0027 160.36 41.7253 160.84 41.512C161.32 41.288 161.837 41.176 162.392 41.176C163.277 41.176 163.997 41.3627 164.552 41.736C165.107 42.0987 165.501 42.5733 165.736 43.16C165.981 43.736 166.104 44.3493 166.104 45C166.104 45.768 165.96 46.456 165.672 47.064C165.384 47.672 164.941 48.152 164.344 48.504C163.757 48.856 163.027 49.032 162.152 49.032C161.032 49.032 160.125 48.744 159.432 48.168C158.739 47.592 158.317 46.824 158.168 45.864H159.592C159.731 46.472 160.024 46.9467 160.472 47.288C160.92 47.6293 161.485 47.8 162.168 47.8C163.011 47.8 163.645 47.5493 164.072 47.048C164.499 46.536 164.712 45.864 164.712 45.032C164.712 44.2 164.499 43.56 164.072 43.112C163.645 42.6533 163.016 42.424 162.184 42.424C161.619 42.424 161.123 42.5627 160.696 42.84C160.28 43.1067 159.976 43.4747 159.784 43.944H158.408V37.416H165.368V38.696ZM168.039 43.096C168.039 41.2613 168.338 39.832 168.935 38.808C169.532 37.7733 170.578 37.256 172.071 37.256C173.554 37.256 174.594 37.7733 175.191 38.808C175.788 39.832 176.087 41.2613 176.087 43.096C176.087 44.9627 175.788 46.4133 175.191 47.448C174.594 48.4827 173.554 49 172.071 49C170.578 49 169.532 48.4827 168.935 47.448C168.338 46.4133 168.039 44.9627 168.039 43.096ZM174.647 43.096C174.647 42.168 174.583 41.384 174.455 40.744C174.338 40.0933 174.087 39.5707 173.703 39.176C173.33 38.7813 172.786 38.584 172.071 38.584C171.346 38.584 170.791 38.7813 170.407 39.176C170.034 39.5707 169.783 40.0933 169.655 40.744C169.538 41.384 169.479 42.168 169.479 43.096C169.479 44.056 169.538 44.8613 169.655 45.512C169.783 46.1627 170.034 46.6853 170.407 47.08C170.791 47.4747 171.346 47.672 172.071 47.672C172.786 47.672 173.33 47.4747 173.703 47.08C174.087 46.6853 174.338 46.1627 174.455 45.512C174.583 44.8613 174.647 44.056 174.647 43.096ZM189.791 45.944C189.791 46.456 189.663 46.9467 189.407 47.416C189.151 47.8747 188.773 48.2587 188.271 48.568C187.781 48.8773 187.189 49.0533 186.495 49.096V50.392H185.631V49.096C184.661 49.0107 183.871 48.7013 183.263 48.168C182.655 47.624 182.346 46.936 182.335 46.104H183.887C183.93 46.552 184.095 46.9413 184.383 47.272C184.682 47.6027 185.098 47.8107 185.631 47.896V43.896C184.917 43.7147 184.341 43.528 183.903 43.336C183.466 43.144 183.093 42.8453 182.783 42.44C182.474 42.0347 182.319 41.4907 182.319 40.808C182.319 39.944 182.618 39.2293 183.215 38.664C183.823 38.0987 184.629 37.784 185.631 37.72V36.392H186.495V37.72C187.402 37.7947 188.133 38.088 188.687 38.6C189.242 39.1013 189.562 39.7573 189.647 40.568H188.095C188.042 40.1947 187.877 39.8587 187.599 39.56C187.322 39.2507 186.954 39.048 186.495 38.952V42.856C187.199 43.0373 187.77 43.224 188.207 43.416C188.655 43.5973 189.029 43.8907 189.327 44.296C189.637 44.7013 189.791 45.2507 189.791 45.944ZM183.807 40.728C183.807 41.2507 183.962 41.6507 184.271 41.928C184.581 42.2053 185.034 42.4347 185.631 42.616V38.92C185.077 38.9733 184.634 39.1547 184.303 39.464C183.973 39.7627 183.807 40.184 183.807 40.728ZM186.495 47.912C187.071 47.848 187.519 47.64 187.839 47.288C188.17 46.936 188.335 46.5147 188.335 46.024C188.335 45.5013 188.175 45.1013 187.855 44.824C187.535 44.536 187.082 44.3067 186.495 44.136V47.912Z" fill="#484848"/>
<path d="M49.557 15.1712L27.4089 3.10116C27.2856 3.03474 27.1481 3 27.0085 3C26.8689 3 26.7314 3.03474 26.6081 3.10116L4.46 15.1712C4.32238 15.2434 4.20683 15.3522 4.12578 15.4858C4.04471 15.6195 4.00123 15.7731 4 15.9299V40.07C4.00041 40.226 4.04262 40.3789 4.12212 40.5126C4.20163 40.6461 4.31546 40.7554 4.45148 40.8287L26.5996 52.8988C26.7229 52.9653 26.8604 53 27 53C27.1396 53 27.2771 52.9653 27.4004 52.8988L49.5485 40.8287C49.6846 40.7554 49.7984 40.6461 49.8778 40.5126C49.9574 40.3789 49.9996 40.226 50 40.07V15.9299C50.0004 15.7748 49.9594 15.6225 49.8815 15.489C49.8036 15.3554 49.6915 15.2457 49.557 15.1712ZM27 4.84269L47.3593 15.9299L41.3963 19.1802L21.7441 7.70502L27 4.84269ZM6.64074 15.9299L13.0552 12.4813L32.6989 23.9134L27 27.0171L6.64074 15.9299ZM19.9807 8.66201L39.633 20.1372L34.4622 22.9564L14.8185 11.4726L19.9807 8.66201ZM35.5952 24.2927L40.2293 21.7753V28.2069L38.4404 26.4136C38.341 26.3137 38.2188 26.2401 38.0845 26.1994C37.9504 26.1587 37.8083 26.1521 37.671 26.1802C37.5337 26.2084 37.4053 26.2704 37.2974 26.3607C37.1893 26.451 37.105 26.5669 37.0518 26.6981L35.5952 30.2502V24.2927ZM5.7037 17.3697L26.1481 28.5173V50.7003L5.7037 39.5527V17.3697ZM27.8519 50.7003V28.5173L33.8915 25.2238V34.5868C33.9014 34.7798 33.975 34.964 34.1007 35.1095C34.2263 35.2551 34.3967 35.3536 34.5844 35.3895C34.7721 35.4253 34.9663 35.3962 35.1356 35.3069C35.305 35.2176 35.4399 35.0734 35.5185 34.8971L38.1252 28.5259L40.4593 30.8709C40.5784 30.9926 40.7307 31.0754 40.8965 31.1091C41.0625 31.1428 41.2344 31.1258 41.3908 31.0601C41.547 30.9944 41.6804 30.8832 41.7739 30.7404C41.8675 30.5977 41.9169 30.43 41.9159 30.2588V20.8441L48.2878 17.3955V39.5527L27.8519 50.7003Z" fill="black"/>
</g>
<defs>
<filter id="filter0_d_105_135" x="0" y="3" width="202.615" height="58" filterUnits="userSpaceOnUse" color-interpolation-filters="sRGB">
<feFlood flood-opacity="0" result="BackgroundImageFix"/>
<feColorMatrix in="SourceAlpha" type="matrix" values="0 0 0 0 0 0 0 0 0 0 0 0 0 0 0 0 0 0 127 0" result="hardAlpha"/>
<feOffset dy="4"/>
<feGaussianBlur stdDeviation="2"/>
<feComposite in2="hardAlpha" operator="out"/>
<feColorMatrix type="matrix" values="0 0 0 0 0 0 0 0 0 0 0 0 0 0 0 0 0 0 0.25 0"/>
<feBlend mode="normal" in2="BackgroundImageFix" result="effect1_dropShadow_105_135"/>
<feBlend mode="normal" in="SourceGraphic" in2="effect1_dropShadow_105_135" result="shape"/>
</filter>
</defs>
</svg>
