<svg width="384" height="64" viewBox="0 0 384 64" fill="none" xmlns="http://www.w3.org/2000/svg">
<path d="M10.374 0.0909327V40.4039C10.374 45.1966 11.6177 48.8063 14.105 51.2329C16.653 53.6596 20.1717 54.8729 24.661 54.8729C29.211 54.8729 32.7297 53.6596 35.217 51.2329C37.765 48.8063 39.039 45.1966 39.039 40.4039V0.0909327H49.413V40.2219C49.413 45.3786 48.2907 49.7466 46.046 53.3259C43.8013 56.9053 40.7983 59.5746 37.037 61.3339C33.2757 63.0933 29.12 63.9729 24.57 63.9729C20.02 63.9729 15.8643 63.0933 12.103 61.3339C8.40234 59.5746 5.46001 56.9053 3.27601 53.3259C1.09201 49.7466 6.55651e-06 45.3786 6.55651e-06 40.2219V0.0909327H10.374ZM69.6541 54.9639H91.0391V63.3359H59.2801V0.0909327H69.6541V54.9639ZM136.934 0.0909327V8.55393H120.099V63.3359H109.725V8.55393H92.7987V0.0909327H136.934ZM154.174 0.0909327V63.3359H143.8V0.0909327H154.174ZM230.766 0.0909327V63.3359H220.392V20.0199L201.1 63.3359H193.911L174.528 20.0199V63.3359H164.154V0.0909327H175.347L197.551 49.6859L219.664 0.0909327H230.766ZM278.89 50.4139H252.409L247.859 63.3359H237.03L259.689 -6.61016e-05H271.701L294.36 63.3359H283.44L278.89 50.4139ZM275.978 41.9509L265.695 12.5579L255.321 41.9509H275.978ZM341.431 0.0909327V8.55393H324.596V63.3359H314.222V8.55393H297.296V0.0909327H341.431ZM358.672 8.46293V27.0269H380.512V35.4899H358.672V54.8729H383.242V63.3359H348.298V-6.61016e-05H383.242V8.46293H358.672Z" fill="#484848"/>
</svg>
